<svg width="512" height="512" viewBox="0 0 512 512" fill="none" xmlns="http://www.w3.org/2000/svg">
<ellipse cx="257.46" cy="255.805" rx="248.46" ry="250.805" fill="white"/>
<path d="M256.7 507.8C118.8 507.8 8.00002 395.3 8.60002 254.7C9.20002 117.8 120 4.8 259.8 6.2C396.9 7.6 507 120.6 505.5 259.7C504.1 396.1 394.6 507.6 256.7 507.8ZM257.1 25.8C132.8 25.4 29.5 126.7 28.1 254.2C26.7 384.3 130.5 487 254.7 488.2C380.4 489.5 485.1 387.7 485.9 259.5C486.6 129.5 384.5 25.8 257.1 25.8Z" fill="#042F8B"/>
<path d="M183.8 394.3C162.5 394.3 141.2 394.3 119.8 394.2C111.4 394.2 107.7 390.1 109 382.1C114.2 348.6 119.5 315 124.7 281.5C129.8 249.1 134.8 216.7 140 184.4C144.4 156.6 148.9 128.8 153.5 101C155 92.1 161.2 87.2 170.3 87.2C206.9 87.2 243.6 86.8 280.2 87.3C299.1 87.6 317.8 90.2 335.5 97.9C362.1 109.5 376.9 136.6 373.3 165.3C372.9 168.2 373.6 171.3 371.9 174C370.9 173.8 369.9 173.8 369 173.4C354 166.1 337.9 164.3 321.6 164.1C292.1 163.7 262.6 164 233.1 164C225.3 164 219.4 168.4 218.2 176C216.3 188.7 214.1 201.5 212.2 214.2C209.3 233.2 206 252 203.3 271C202.6 276.2 200.6 281.5 201.8 286.9C201.1 289.1 200.1 291.1 199.7 293.5C197.7 307.1 195.5 320.7 193.3 334.3C190.2 354.3 187 374.3 183.8 394.3Z" fill="#012D8A"/>
<path d="M183.8 394.3C187 374.3 190.2 354.3 193.4 334.4C195.6 320.8 197.8 307.2 199.8 293.6C200.2 291.2 201.2 289.2 201.9 287C205.6 281.4 210.9 279.2 217.6 279.1C240.7 278.9 263.8 280.6 286.6 275.2C310.4 269.5 331 258.7 346.5 239.2C361.3 220.6 368.6 198.9 372.4 175.8C390.4 184.7 399.2 200.1 400.8 219.1C403 244.3 397.1 268.4 384.5 290.3C368.9 317.6 343.8 330.8 313.5 335C303.2 336.4 292.7 337.1 282.3 336.9C273.9 336.7 269.1 341.1 267.8 349.5C264.5 370.6 261.3 391.8 258 412.9C255.9 426.5 254.4 433.7 234.7 433C219.9 432.5 205.1 432.9 190.2 432.9C182.3 432.9 179.1 429.2 180 421.4C181 412.3 183.5 403.4 183.8 394.3Z" fill="#019AE0"/>
<path d="M372.3 175.7C368.6 198.8 361.2 220.5 346.4 239.1C331 258.6 310.3 269.4 286.5 275.1C263.7 280.6 240.5 278.8 217.5 279C210.8 279.1 205.5 281.3 201.8 286.9C200.6 281.4 202.6 276.2 203.3 271C205.9 252 209.3 233.1 212.2 214.2C214.1 201.5 216.3 188.8 218.2 176C219.3 168.4 225.2 164 233.1 164C262.6 164 292.1 163.7 321.6 164.1C337.8 164.3 354 166.2 369 173.4C369.9 173.8 370.9 173.8 371.9 174C372 174.6 372.2 175.1 372.3 175.7Z" fill="#001F6B"/>
</svg>
