<svg width="613" height="613" viewBox="0 0 613 613" fill="none" xmlns="http://www.w3.org/2000/svg">
<g clip-path="url(#clip0_12_2)" filter="url(#filter0_i_12_2)">
<path d="M237.927 0C106.555 0 0.0350037 106.52 0.0350037 237.893C0.0350037 369.266 106.555 475.786 237.928 475.786C288.446 475.786 335.296 460.029 373.807 433.189L373.835 433.161L550.267 609.594C553.541 612.868 558.747 612.952 562.106 609.594L609.657 562.043C612.931 558.769 612.763 553.34 609.629 550.205L433.223 373.8C460.063 335.261 475.82 288.41 475.82 237.893C475.82 106.52 369.3 0 237.927 0ZM237.927 419.811C137.452 419.811 56.009 338.368 56.009 237.893C56.009 137.418 137.453 55.975 237.927 55.975C338.401 55.975 419.845 137.418 419.845 237.893C419.845 338.368 338.402 419.811 237.927 419.811Z" fill="white"/>
</g>
<defs>
<filter id="filter0_i_12_2" x="0" y="0" width="612.08" height="618.08" filterUnits="userSpaceOnUse" color-interpolation-filters="sRGB">
<feFlood flood-opacity="0" result="BackgroundImageFix"/>
<feBlend mode="normal" in="SourceGraphic" in2="BackgroundImageFix" result="shape"/>
<feColorMatrix in="SourceAlpha" type="matrix" values="0 0 0 0 0 0 0 0 0 0 0 0 0 0 0 0 0 0 127 0" result="hardAlpha"/>
<feOffset dy="6"/>
<feGaussianBlur stdDeviation="3"/>
<feComposite in2="hardAlpha" operator="arithmetic" k2="-1" k3="1"/>
<feColorMatrix type="matrix" values="0 0 0 0 0 0 0 0 0 0 0 0 0 0 0 0 0 0 1 0"/>
<feBlend mode="normal" in2="shape" result="effect1_innerShadow_12_2"/>
</filter>
<clipPath id="clip0_12_2">
<rect width="612.08" height="612.08" fill="white"/>
</clipPath>
</defs>
</svg>
